<svg xmlns="http://www.w3.org/2000/svg" viewBox="0 0 58 58"><path d="M29 0C13.01 0 0 13.01 0 29.002 0 44.992 13.01 58 29 58s29-13.008 29-28.998C58 13.01 44.99 0 29 0zm0 2.352c14.694 0 26.648 11.953 26.648 26.648 0 14.693-11.954 26.648-26.648 26.648C14.306 55.648 2.352 43.693 2.352 29 2.352 14.305 14.306 2.352 29 2.352zm-6.943 10.65c-.18-.01-.36.026-.524.113-.328.174-.533.515-.533.885v30c0 .37.205.71.533.885.147.078.307.115.467.115.197 0 .392-.06.563-.174l22-15c.273-.186.437-.495.437-.826 0-.33-.164-.64-.438-.826l-22-15c-.152-.104-.327-.162-.505-.172zm.943 2.89L42.225 29 23 42.107V15.893z" fill="none"/></svg>