<svg xmlns="http://www.w3.org/2000/svg" viewBox="0 0 493.456 493.456"><path d="M246.73 0C110.682 0 .002 110.68.002 246.736c0 136.036 110.68 246.72 246.728 246.72s246.723-110.684 246.723-246.72C493.453 110.68 382.778 0 246.73 0zm0 20.006c125.018 0 226.72 101.704 226.72 226.728 0 125.006-101.702 226.717-226.72 226.717-125.017 0-226.724-101.71-226.724-226.716 0-125.024 101.707-226.728 226.724-226.728zm-39.525 111.01c-1.428 0-2.775.556-3.78 1.556l-8.968 8.977c-1 .99-1.555 2.343-1.555 3.762 0 1.448.56 2.792 1.56 3.792l94.78 94.777c.708.717 1.115 1.704 1.115 2.72 0 1.032-.403 2.012-1.115 2.732l-94.953 94.94c-2.077 2.083-2.08 5.48-.005 7.564l8.98 8.97c2.01 2.007 5.553 2.007 7.557 0L321.14 250.49c1.02-1.016 1.57-2.376 1.55-3.832.02-1.564-.53-2.92-1.55-3.935L210.98 132.572c-1.004-1-2.34-1.564-3.777-1.556z" fill="none"/></svg>