<svg xmlns="http://www.w3.org/2000/svg" viewBox="0 0 493.468 493.468"><path d="M246.736.006C110.688.006.008 110.686.008 246.742c0 136.036 110.68 246.72 246.728 246.72S493.46 382.777 493.46 246.74C493.46 110.686 382.783.006 246.735.006zm0 20.006c125.017 0 226.72 101.704 226.72 226.728 0 125.006-101.703 226.717-226.72 226.717S20.012 371.747 20.012 246.74c0-125.024 101.707-226.728 226.724-226.728zm33.035 111.045c-1.435 0-2.77.554-3.774 1.558L165.684 242.92c-1.004 1.024-1.552 2.375-1.536 3.85-.016 1.553.53 2.917 1.54 3.933l110.14 110.137c2 2.012 5.564 2.004 7.568 0l8.96-8.98c1.01-.99 1.568-2.324 1.568-3.772 0-1.428-.557-2.772-1.57-3.776l-94.762-94.777c-1.508-1.512-1.508-3.943 0-5.447l94.93-94.943c2.097-2.08 2.098-5.49-.002-7.55l-8.967-8.98c-.992-1.004-2.358-1.558-3.782-1.558z" fill="none"/></svg>